<?xml version="1.0" encoding="UTF-8" standalone="no"?>
<svg width="32px" height="38px" viewBox="0 0 32 38" version="1.1" xmlns="http://www.w3.org/2000/svg" xmlns:xlink="http://www.w3.org/1999/xlink">
    <!-- Generator: Sketch 39 (31667) - http://www.bohemiancoding.com/sketch -->
    <title>logo</title>
    <desc>Created with Sketch.</desc>
    <defs></defs>
    <g id="Page-6" stroke="none" stroke-width="1" fill="none" fill-rule="evenodd">
        <g id="制定食谱" transform="translate(-44.000000, -13.000000)" stroke="#FFFFFF" stroke-width="0.5">
            <g id="logo" transform="translate(45.000000, 14.000000)">
                <path d="M27.7593817,1.7943326 C27.7593817,1.7943326 24.6410645,4.79302775 27.9589674,7.64183603 C27.9589674,7.64183603 31.2998167,4.71808431 27.7593817,1.7943326" id="Fill-24" fill="#E31341"></path>
                <path d="M23.7709187,7.63249803 C23.7709187,7.63249803 22.2975699,11.9339639 26.745582,13.0535661 C26.745582,13.0535661 28.4617799,8.71738207 23.7709187,7.63249803" id="Fill-26" fill="#AECE2C"></path>
                <path d="M7.1035296,2.48517699 C7.1035296,2.48517699 7.8048283,6.14902505 11.4265318,5.1287887 C11.4265318,5.1287887 10.8841845,1.34115228 7.1035296,2.48517699" id="Fill-28" fill="#AECE2C"></path>
                <path d="M4.42774281,3.43894593 C4.42774281,3.43894593 1.42726476,6.77907667 4.60844554,9.96213745 C4.60844554,9.96213745 7.82261174,6.70604872 4.42774281,3.43894593" id="Fill-30" fill="#1EA5D2"></path>
                <path d="M0.675101586,8.96809539 C0.675101586,8.96809539 -1.50862879,12.3903526 2.24214804,14.0745447 C2.24214804,14.0745447 4.65008366,10.6630621 0.675101586,8.96809539" id="Fill-32" fill="#AECE2C"></path>
                <path d="M20.27793,7.22282321 C20.27793,7.22282321 16.640451,9.44167565 18.3559318,13.8815355 C18.6963031,14.7619412 19.2348259,15.0744051 19.9418612,15.229799 C19.9418612,15.229799 21.9566011,14.4130831 22.3067724,11.4141486 C22.4489921,10.1956593 22.1267867,8.17290484 20.27793,7.22282321" id="Fill-34" fill="#FECE34"></path>
                <path d="M29.2747749,8.87572102 C29.2747749,8.87572102 26.9368736,10.1976466 28.4814517,12.4320624 C28.4814517,12.4320624 30.9410167,11.1901084 29.2747749,8.87572102" id="Fill-36" fill="#A94682"></path>
                <path d="M25.9763525,2.0350375 C25.9763525,2.0350375 21.2804717,0.851027002 20.53089,5.6957729 C20.53089,5.6957729 25.287244,7.13597981 25.9763525,2.0350375" id="Fill-38" fill="#1EA5D2"></path>
                <path d="M22.0413593,0.0774814556 C22.0413593,0.0774814556 18.3895387,-0.339376438 18.431368,3.38840101 C18.431368,3.38840101 22.1601546,3.9920189 22.0413593,0.0774814556" id="Fill-40" fill="#A94682"></path>
                <path d="M16.9839057,1.39531268 C16.9839057,1.39531268 12.4787666,3.05244851 14.6488726,7.40371703 C14.6488726,7.40371703 19.350012,5.92089053 16.9839057,1.39531268" id="Fill-42" fill="#FECE34"></path>
                <path d="M14.829647,13.4244763 C14.829647,13.4244763 13.7953868,15.3167382 14.5284758,17.4917738 C15.17695,19.271022 16.5305474,19.468796 16.5305474,19.468796 C16.5305474,19.468796 17.9121106,17.6328016 17.0944068,15.7405397 C16.2767031,13.8480384 14.829647,13.4244763 14.829647,13.4244763" id="Fill-44" fill="#AECE2C"></path>
                <path d="M13.5257191,19.5293493 C13.5257191,19.5293493 12.7257031,20.5349801 12.9671182,21.8755817 C13.1939527,22.9769868 13.9932515,23.222648 13.9932515,23.222648 C13.9932515,23.222648 14.9978727,22.283341 14.6792526,21.0995699 C14.3606326,19.9157989 13.5257191,19.5293493 13.5257191,19.5293493" id="Fill-46" fill="#A94682"></path>
                <path d="M21.9233049,15.2690186 C21.9233049,15.2690186 21.663724,16.5586203 22.5961597,17.5575469 C23.390439,18.3625303 24.2992112,18.1297987 24.2992112,18.1297987 C24.2992112,18.1297987 24.7932754,16.78369 23.8668154,15.9595517 C22.9403554,15.1356528 21.9233049,15.2690186 21.9233049,15.2690186" id="Fill-48" fill="#E31341"></path>
                <path d="M9.25592383,14.4130353 C9.25592383,14.4130353 10.6092821,15.2321454 11.0041511,17.0681399 C11.398781,18.9038949 10.4400526,19.4687242 10.4400526,19.4687242 C10.4400526,19.4687242 8.52450801,18.3752204 8.49462991,16.6160849 C8.47407378,15.4016661 9.25592383,14.4130353 9.25592383,14.4130353" id="Fill-50" fill="#1EA5D2"></path>
                <path d="M16.9951159,7.63249803 C16.9951159,7.63249803 17.9947176,8.00266592 17.353175,9.42252078 C16.7116325,10.8426151 15.5514063,12.2579206 14.265931,12.2909628 C13.4510955,12.3120332 13.9898574,8.73917073 16.9951159,7.63249803" id="Fill-52" fill="#E31341"></path>
                <path d="M8.49422357,7.22282321 C8.49422357,7.22282321 8.54633097,6.69606424 9.05664887,6.8665426 C9.56696678,7.03702096 11.6648873,7.88366628 12.3738348,10.3429124 C13.0825432,12.8021584 12.2320931,13.5975645 12.2320931,13.5975645 C12.2320931,13.5975645 9.59541072,13.2283543 8.49422357,10.6539396 C7.77212971,8.96591653 8.49422357,7.22282321 8.49422357,7.22282321" id="Fill-54" fill="#A94682"></path>
                <path d="M6.1890447,10.9332894 C6.1890447,10.9332894 6.52798183,10.9505288 6.66685523,11.226359 C6.87432874,11.6379493 7.54025177,12.6663265 7.1035535,15.2299666 C6.71394311,17.1356369 4.79074974,17.4176924 4.79074974,17.4176924 C4.79074974,17.4176924 4.22784639,17.3099462 4.18075851,16.9409755 C4.13390965,16.5717653 3.19573739,15.0798403 4.18075851,13.0534943 C5.16577962,11.0271483 6.1890447,10.9332894 6.1890447,10.9332894" id="Fill-56" fill="#FECE34"></path>
                <path d="M28.3841686,13.776471 C28.3841686,13.776471 28.5658274,13.3162752 29.1096088,13.3162752 L29.7542586,13.3162752 C29.7542586,13.3162752 29.9101028,13.2556979 29.9397419,13.5238661 C29.9397419,13.5238661 29.9516931,17.6835859 27.5831966,22.1461921 C25.2147,26.6087983 24.0869811,26.5975449 23.9459565,27.0776138 C23.9459565,27.0776138 20.083077,29.8682392 18.9835631,30.6590959 C18.9835631,30.6590959 14.979659,32.9157793 13.9927257,36.3899941 C13.9927257,36.3899941 13.7109155,36.4733178 13.7109155,36.0495162 C13.7109155,36.0495162 12.1883276,29.0725937 15.2052984,24.4969737 C15.2052984,24.4969737 18.5604892,20.6554642 18.6168991,20.5141971 C18.6168991,20.5141971 19.6038324,19.8361146 20.083077,17.5483046 C20.083077,17.5483046 20.3087164,17.1245031 20.7315513,17.5765581 C20.7315513,17.5765581 21.6056649,17.9436133 21.1264202,19.9771424 C21.1264202,19.9771424 20.1492869,21.982418 20.1163015,22.0954317 C20.1163015,22.0954317 19.3170026,24.468002 22.3363636,22.5192333 C22.3363636,22.5192333 27.0520835,18.1835281 27.953685,14.943721 L28.3841686,13.776471 Z" id="Fill-58" fill="#1EA5D2"></path>
                <path d="M1.39977691,14.7211892 C1.39977691,14.7211892 1.26138156,14.273923 0.847629671,14.273923 L0.3569118,14.273923 C0.3569118,14.273923 0.238116485,14.331627 0.215648156,14.5322743 C0.215648156,14.5322743 -0.0549278942,17.7074337 1.74803601,21.0454095 C3.55099992,24.3833854 4.45284041,24.698483 4.56016254,25.0576368 C4.56016254,25.0576368 7.6572066,27.3430525 8.49427137,27.9344591 C8.49427137,27.9344591 11.2024221,29.1876666 12.1009163,31.3931106 C12.1009163,31.3931106 12.3155605,31.4587161 12.3155605,31.1417029 C12.3155605,31.1417029 13.728436,26.2636754 11.4318859,22.8411788 C11.4318859,22.8411788 8.87193052,20.4432283 8.82914509,20.337637 C8.82914509,20.337637 7.82978249,19.6104702 7.46503067,17.8992219 C7.46503067,17.8992219 7.29317186,17.5824482 6.97120548,17.9205317 C6.97120548,17.9205317 6.33731177,18.0081652 6.70230261,19.5293015 C6.70230261,19.5293015 7.3794598,21.7345061 7.40455741,21.8190269 C7.40455741,21.8190269 7.24895227,23.4474304 5.490686,21.7816749 C5.490686,21.7816749 2.97016971,20.0072155 1.72747988,15.6458907 L1.39977691,14.7211892 Z" id="Fill-60" fill="#1EA5D2"></path>
            </g>
        </g>
    </g>
</svg>